<mxfile host="app.diagrams.net" agent="Mozilla/5.0 (Windows NT 10.0; Win64; x64) AppleWebKit/537.36 (KHTML, like Gecko) Chrome/132.0.0.0 Safari/537.36" version="26.0.7">
  <diagram name="Page-1" id="52a04d89-c75d-2922-d76d-85b35f80e030">
    <mxGraphModel dx="1500" dy="804" grid="1" gridSize="10" guides="1" tooltips="1" connect="1" arrows="1" fold="1" page="1" pageScale="1" pageWidth="1100" pageHeight="850" background="none" math="0" shadow="0">
      <root>
        <mxCell id="0" />
        <mxCell id="1" parent="0" />
        <mxCell id="H6KsvfKWJKTPre45YXKc-9" style="edgeStyle=orthogonalEdgeStyle;rounded=0;orthogonalLoop=1;jettySize=auto;html=1;exitX=0.5;exitY=1;exitDx=0;exitDy=0;entryX=0.5;entryY=0;entryDx=0;entryDy=0;" edge="1" parent="1" source="H6KsvfKWJKTPre45YXKc-1" target="H6KsvfKWJKTPre45YXKc-2">
          <mxGeometry relative="1" as="geometry" />
        </mxCell>
        <mxCell id="H6KsvfKWJKTPre45YXKc-1" value="Script Start" style="rounded=0;whiteSpace=wrap;html=1;" vertex="1" parent="1">
          <mxGeometry x="500" y="40" width="120" height="60" as="geometry" />
        </mxCell>
        <mxCell id="H6KsvfKWJKTPre45YXKc-4" value="Ja" style="edgeStyle=orthogonalEdgeStyle;rounded=0;orthogonalLoop=1;jettySize=auto;html=1;exitX=0;exitY=1;exitDx=0;exitDy=0;entryX=0.5;entryY=0;entryDx=0;entryDy=0;" edge="1" parent="1" source="H6KsvfKWJKTPre45YXKc-2" target="H6KsvfKWJKTPre45YXKc-15">
          <mxGeometry relative="1" as="geometry">
            <mxPoint x="480.0000000000002" y="200" as="targetPoint" />
            <Array as="points">
              <mxPoint x="540" y="160" />
              <mxPoint x="460" y="160" />
            </Array>
          </mxGeometry>
        </mxCell>
        <mxCell id="H6KsvfKWJKTPre45YXKc-13" value="Nee" style="edgeStyle=orthogonalEdgeStyle;rounded=0;orthogonalLoop=1;jettySize=auto;html=1;entryX=0.5;entryY=0;entryDx=0;entryDy=0;" edge="1" parent="1" source="H6KsvfKWJKTPre45YXKc-2" target="H6KsvfKWJKTPre45YXKc-11">
          <mxGeometry relative="1" as="geometry">
            <Array as="points">
              <mxPoint x="660" y="160" />
            </Array>
          </mxGeometry>
        </mxCell>
        <mxCell id="H6KsvfKWJKTPre45YXKc-2" value="Is er een CSV bestand opgegeven?" style="rhombus;whiteSpace=wrap;html=1;" vertex="1" parent="1">
          <mxGeometry x="520" y="120" width="80" height="80" as="geometry" />
        </mxCell>
        <mxCell id="H6KsvfKWJKTPre45YXKc-3" value="Script stopt" style="rounded=0;whiteSpace=wrap;html=1;" vertex="1" parent="1">
          <mxGeometry x="500" y="630" width="120" height="60" as="geometry" />
        </mxCell>
        <mxCell id="H6KsvfKWJKTPre45YXKc-14" style="edgeStyle=orthogonalEdgeStyle;rounded=0;orthogonalLoop=1;jettySize=auto;html=1;entryX=1;entryY=0.5;entryDx=0;entryDy=0;" edge="1" parent="1" source="H6KsvfKWJKTPre45YXKc-11" target="H6KsvfKWJKTPre45YXKc-3">
          <mxGeometry relative="1" as="geometry" />
        </mxCell>
        <mxCell id="H6KsvfKWJKTPre45YXKc-11" value="Melding: er is geen of een leeg CSV-bestand geleverd" style="rounded=0;whiteSpace=wrap;html=1;" vertex="1" parent="1">
          <mxGeometry x="600" y="210" width="120" height="60" as="geometry" />
        </mxCell>
        <mxCell id="H6KsvfKWJKTPre45YXKc-17" style="edgeStyle=orthogonalEdgeStyle;rounded=0;orthogonalLoop=1;jettySize=auto;html=1;exitX=0.5;exitY=1;exitDx=0;exitDy=0;entryX=0.5;entryY=0;entryDx=0;entryDy=0;" edge="1" parent="1" source="H6KsvfKWJKTPre45YXKc-15" target="H6KsvfKWJKTPre45YXKc-16">
          <mxGeometry relative="1" as="geometry" />
        </mxCell>
        <mxCell id="H6KsvfKWJKTPre45YXKc-15" value="Script berekent aantal gebruikers" style="rounded=0;whiteSpace=wrap;html=1;" vertex="1" parent="1">
          <mxGeometry x="400" y="210" width="120" height="60" as="geometry" />
        </mxCell>
        <mxCell id="H6KsvfKWJKTPre45YXKc-20" value="Nee" style="edgeStyle=orthogonalEdgeStyle;rounded=0;orthogonalLoop=1;jettySize=auto;html=1;entryX=0.5;entryY=0;entryDx=0;entryDy=0;exitX=1;exitY=0.5;exitDx=0;exitDy=0;" edge="1" parent="1" source="H6KsvfKWJKTPre45YXKc-16" target="H6KsvfKWJKTPre45YXKc-19">
          <mxGeometry relative="1" as="geometry" />
        </mxCell>
        <mxCell id="H6KsvfKWJKTPre45YXKc-23" value="Ja" style="edgeStyle=orthogonalEdgeStyle;rounded=0;orthogonalLoop=1;jettySize=auto;html=1;exitX=0;exitY=0.5;exitDx=0;exitDy=0;entryX=0.5;entryY=0;entryDx=0;entryDy=0;" edge="1" parent="1" source="H6KsvfKWJKTPre45YXKc-16" target="H6KsvfKWJKTPre45YXKc-27">
          <mxGeometry relative="1" as="geometry">
            <mxPoint x="360.0000000000002" y="425" as="targetPoint" />
          </mxGeometry>
        </mxCell>
        <mxCell id="H6KsvfKWJKTPre45YXKc-16" value="Is de structuur van het CSV bestand juist? (tussen alle data een ;)" style="rhombus;whiteSpace=wrap;html=1;" vertex="1" parent="1">
          <mxGeometry x="395" y="290" width="130" height="120" as="geometry" />
        </mxCell>
        <mxCell id="H6KsvfKWJKTPre45YXKc-21" style="edgeStyle=orthogonalEdgeStyle;rounded=0;orthogonalLoop=1;jettySize=auto;html=1;entryX=0.5;entryY=0;entryDx=0;entryDy=0;" edge="1" parent="1" source="H6KsvfKWJKTPre45YXKc-19" target="H6KsvfKWJKTPre45YXKc-3">
          <mxGeometry relative="1" as="geometry" />
        </mxCell>
        <mxCell id="H6KsvfKWJKTPre45YXKc-19" value="Melding: De structuur is niet juist. Is er tussen alle datacellen een puntkomma?" style="rounded=0;whiteSpace=wrap;html=1;" vertex="1" parent="1">
          <mxGeometry x="500" y="425" width="120" height="60" as="geometry" />
        </mxCell>
        <mxCell id="H6KsvfKWJKTPre45YXKc-29" value="Nee" style="edgeStyle=orthogonalEdgeStyle;rounded=0;orthogonalLoop=1;jettySize=auto;html=1;entryX=0.5;entryY=0;entryDx=0;entryDy=0;exitX=1;exitY=0.5;exitDx=0;exitDy=0;" edge="1" parent="1" source="H6KsvfKWJKTPre45YXKc-27" target="H6KsvfKWJKTPre45YXKc-28">
          <mxGeometry relative="1" as="geometry" />
        </mxCell>
        <mxCell id="H6KsvfKWJKTPre45YXKc-32" value="Ja" style="edgeStyle=orthogonalEdgeStyle;rounded=0;orthogonalLoop=1;jettySize=auto;html=1;entryX=0.5;entryY=0;entryDx=0;entryDy=0;exitX=0;exitY=0.5;exitDx=0;exitDy=0;" edge="1" parent="1" source="H6KsvfKWJKTPre45YXKc-27" target="H6KsvfKWJKTPre45YXKc-33">
          <mxGeometry relative="1" as="geometry">
            <mxPoint x="310.0000000000002" y="520" as="targetPoint" />
          </mxGeometry>
        </mxCell>
        <mxCell id="H6KsvfKWJKTPre45YXKc-27" value="Bestaat de gevraagde AD?" style="rhombus;whiteSpace=wrap;html=1;" vertex="1" parent="1">
          <mxGeometry x="330" y="415" width="80" height="80" as="geometry" />
        </mxCell>
        <mxCell id="H6KsvfKWJKTPre45YXKc-30" style="edgeStyle=orthogonalEdgeStyle;rounded=0;orthogonalLoop=1;jettySize=auto;html=1;entryX=0.25;entryY=0;entryDx=0;entryDy=0;" edge="1" parent="1" source="H6KsvfKWJKTPre45YXKc-28" target="H6KsvfKWJKTPre45YXKc-3">
          <mxGeometry relative="1" as="geometry" />
        </mxCell>
        <mxCell id="H6KsvfKWJKTPre45YXKc-28" value="Melding: De ingevulde Active Directory is niet gevonden" style="rounded=0;whiteSpace=wrap;html=1;" vertex="1" parent="1">
          <mxGeometry x="395" y="530" width="120" height="60" as="geometry" />
        </mxCell>
        <mxCell id="H6KsvfKWJKTPre45YXKc-39" value="Ja" style="edgeStyle=orthogonalEdgeStyle;rounded=0;orthogonalLoop=1;jettySize=auto;html=1;entryX=0.5;entryY=0;entryDx=0;entryDy=0;exitX=0;exitY=0.5;exitDx=0;exitDy=0;" edge="1" parent="1" source="H6KsvfKWJKTPre45YXKc-33" target="H6KsvfKWJKTPre45YXKc-34">
          <mxGeometry relative="1" as="geometry" />
        </mxCell>
        <mxCell id="H6KsvfKWJKTPre45YXKc-40" value="Nee" style="edgeStyle=orthogonalEdgeStyle;rounded=0;orthogonalLoop=1;jettySize=auto;html=1;entryX=0.5;entryY=0;entryDx=0;entryDy=0;exitX=1;exitY=0.5;exitDx=0;exitDy=0;" edge="1" parent="1" source="H6KsvfKWJKTPre45YXKc-33" target="H6KsvfKWJKTPre45YXKc-37">
          <mxGeometry relative="1" as="geometry" />
        </mxCell>
        <mxCell id="H6KsvfKWJKTPre45YXKc-33" value="Staan er gebruikers in de CSV die al in de AD staan?" style="rhombus;whiteSpace=wrap;html=1;" vertex="1" parent="1">
          <mxGeometry x="250" y="512.5" width="100" height="95" as="geometry" />
        </mxCell>
        <mxCell id="H6KsvfKWJKTPre45YXKc-42" style="edgeStyle=orthogonalEdgeStyle;rounded=0;orthogonalLoop=1;jettySize=auto;html=1;entryX=0.5;entryY=1;entryDx=0;entryDy=0;exitX=0.5;exitY=1;exitDx=0;exitDy=0;" edge="1" parent="1" source="H6KsvfKWJKTPre45YXKc-34" target="H6KsvfKWJKTPre45YXKc-3">
          <mxGeometry relative="1" as="geometry" />
        </mxCell>
        <mxCell id="H6KsvfKWJKTPre45YXKc-34" value="Melding: De gebruiker(s) [NAAM] staat al in de Active Directory. Haal deze eerst uit het CSV bestand." style="rounded=0;whiteSpace=wrap;html=1;" vertex="1" parent="1">
          <mxGeometry x="160" y="630" width="120" height="90" as="geometry" />
        </mxCell>
        <mxCell id="H6KsvfKWJKTPre45YXKc-41" style="edgeStyle=orthogonalEdgeStyle;rounded=0;orthogonalLoop=1;jettySize=auto;html=1;entryX=0;entryY=0.5;entryDx=0;entryDy=0;" edge="1" parent="1" source="H6KsvfKWJKTPre45YXKc-37" target="H6KsvfKWJKTPre45YXKc-3">
          <mxGeometry relative="1" as="geometry" />
        </mxCell>
        <mxCell id="H6KsvfKWJKTPre45YXKc-37" value="Melding: De gebruiker(s) zijn succesvol toegevoegd!" style="rounded=0;whiteSpace=wrap;html=1;" vertex="1" parent="1">
          <mxGeometry x="330" y="630" width="120" height="60" as="geometry" />
        </mxCell>
      </root>
    </mxGraphModel>
  </diagram>
</mxfile>
